# https://github.com/mikedh/trimesh
o geometry_0
o geometry_1
v 0.00933876 -0.03773103 -0.01387342 0.54509804 0.71372549 0.60000000
v 0.00920712 -0.03773103 -0.01237800 0.54509804 0.71372549 0.60000000
v 0.00920712 -0.05200000 -0.01237800 0.54509804 0.71372549 0.60000000
v 0.00933876 -0.03773103 -0.01411869 0.54509804 0.71372549 0.60000000
v 0.00881039 -0.03773103 -0.01090454 0.54509804 0.71372549 0.60000000
v 0.00873543 -0.03773103 -0.01069770 0.54509804 0.71372549 0.60000000
v 0.00809553 -0.05200000 -0.00932491 0.54509804 0.71372549 0.60000000
v 0.00920712 -0.05200000 -0.01562144 0.54509804 0.71372549 0.60000000
v 0.00920712 -0.03773103 -0.01562144 0.54509804 0.71372549 0.60000000
v 0.00809553 -0.03773103 -0.00932491 0.54509804 0.71372549 0.60000000
v 0.00795659 -0.03773103 -0.00909245 0.54509804 0.71372549 0.60000000
v 0.00711010 -0.03773103 -0.00794114 0.54509804 0.71372549 0.60000000
v 0.00600948 -0.05200000 -0.00683925 0.54509804 0.71372549 0.60000000
v 0.00809553 -0.05200000 -0.01867452 0.54509804 0.71372549 0.60000000
v 0.00873908 -0.03773103 -0.01729624 0.54509804 0.71372549 0.60000000
v 0.00881404 -0.03773103 -0.01708941 0.54509804 0.71372549 0.60000000
v 0.00701686 -0.03773103 -0.00783132 0.54509804 0.71372549 0.60000000
v 0.00600948 -0.03773103 -0.00683925 0.54509804 0.71372549 0.60000000
v 0.00469679 -0.03773103 -0.00592039 0.54509804 0.71372549 0.60000000
v 0.00464011 -0.03773103 -0.00588745 0.54509804 0.71372549 0.60000000
v 0.00319761 -0.05200000 -0.00521570 0.54509804 0.71372549 0.60000000
v 0.00711376 -0.03773103 -0.02005280 0.54509804 0.71372549 0.60000000
v 0.00809553 -0.03773103 -0.01867452 0.54509804 0.71372549 0.60000000
v 0.00600948 -0.05200000 -0.02116019 0.54509804 0.71372549 0.60000000
v 0.00702051 -0.03773103 -0.02016446 0.54509804 0.71372549 0.60000000
v 0.00319761 -0.03773103 -0.00521570 0.54509804 0.71372549 0.60000000
v 0.00160336 -0.03773103 -0.00479105 0.54509804 0.71372549 0.60000000
v 0.00159605 -0.03773103 -0.00478922 0.54509804 0.71372549 0.60000000
v -0.00000003 -0.05200000 -0.00465194 0.54509804 0.71372549 0.60000000
v 0.00319761 -0.05200000 -0.02278374 0.54509804 0.71372549 0.60000000
v 0.00470227 -0.03773103 -0.02207538 0.54509804 0.71372549 0.60000000
v 0.00600948 -0.03773103 -0.02116019 0.54509804 0.71372549 0.60000000
v -0.00000003 -0.03773103 -0.00465194 0.54509804 0.71372549 0.60000000
v -0.00162719 -0.03773103 -0.00479471 0.54509804 0.71372549 0.60000000
v -0.00319767 -0.05200000 -0.00521570 0.54509804 0.71372549 0.60000000
v -0.00000003 -0.05200000 -0.02334750 0.54509804 0.71372549 0.60000000
v 0.00160336 -0.03773103 -0.02320839 0.54509804 0.71372549 0.60000000
v 0.00319761 -0.03773103 -0.02278374 0.54509804 0.71372549 0.60000000
v -0.00319767 -0.03773103 -0.00521570 0.54509804 0.71372549 0.60000000
v -0.00481751 -0.03773103 -0.00599178 0.54509804 0.71372549 0.60000000
v -0.00600954 -0.05200000 -0.00683925 0.54509804 0.71372549 0.60000000
v -0.00162353 -0.03773103 -0.02320656 0.54509804 0.71372549 0.60000000
v -0.00000003 -0.03773103 -0.02334750 0.54509804 0.71372549 0.60000000
v -0.00319767 -0.05200000 -0.02278374 0.54509804 0.71372549 0.60000000
v -0.00600954 -0.03773103 -0.00683925 0.54509804 0.71372549 0.60000000
v -0.00710467 -0.03773103 -0.00793382 0.54509804 0.71372549 0.60000000
v -0.00720157 -0.03773103 -0.00804913 0.54509804 0.71372549 0.60000000
v -0.00809559 -0.05200000 -0.00932491 0.54509804 0.71372549 0.60000000
v -0.00163267 -0.03773103 -0.02320473 0.54509804 0.71372549 0.60000000
v -0.00319767 -0.03773103 -0.02278374 0.54509804 0.71372549 0.60000000
v -0.00600954 -0.05200000 -0.02116019 0.54509804 0.71372549 0.60000000
v -0.00475901 -0.03773103 -0.02204243 0.54509804 0.71372549 0.60000000
v -0.00809559 -0.03773103 -0.00932491 0.54509804 0.71372549 0.60000000
v -0.00873549 -0.03773103 -0.01069587 0.54509804 0.71372549 0.60000000
v -0.00920718 -0.05200000 -0.01237800 0.54509804 0.71372549 0.60000000
v -0.00600954 -0.03773103 -0.02116019 0.54509804 0.71372549 0.60000000
v -0.00481751 -0.03773103 -0.02200765 0.54509804 0.71372549 0.60000000
v -0.00809559 -0.05200000 -0.01867452 0.54509804 0.71372549 0.60000000
v -0.00720706 -0.03773103 -0.01994481 0.54509804 0.71372549 0.60000000
v -0.00711016 -0.03773103 -0.02005829 0.54509804 0.71372549 0.60000000
v -0.00881045 -0.03773103 -0.01090270 0.54509804 0.71372549 0.60000000
v -0.00920718 -0.03773103 -0.01237800 0.54509804 0.71372549 0.60000000
v -0.00933881 -0.03773103 -0.01387159 0.54509804 0.71372549 0.60000000
v -0.00920718 -0.05200000 -0.01562144 0.54509804 0.71372549 0.60000000
v -0.00873914 -0.03773103 -0.01729441 0.54509804 0.71372549 0.60000000
v -0.00809559 -0.03773103 -0.01867452 0.54509804 0.71372549 0.60000000
v -0.00933881 -0.03773103 -0.01411686 0.54509804 0.71372549 0.60000000
v -0.00920718 -0.03773103 -0.01562144 0.54509804 0.71372549 0.60000000
v -0.00881410 -0.03773103 -0.01708758 0.54509804 0.71372549 0.60000000
v -0.03759483 -0.00319934 -0.02700000 0.54117647 0.42352941 0.64313725
v -0.03759483 -0.00319934 -0.00000000 0.54117647 0.42352941 0.64313725
v -0.03759483 0.00319460 -0.02700000 0.54117647 0.42352941 0.64313725
v -0.03651095 -0.00950468 -0.02700000 0.54117647 0.42352941 0.64313725
v -0.03759483 0.00319460 -0.00000000 0.54117647 0.42352941 0.64313725
v -0.03651095 -0.00950468 -0.00000000 0.54117647 0.42352941 0.64313725
v -0.03651095 0.00950732 -0.02700000 0.54117647 0.42352941 0.64313725
v -0.03438007 -0.01553683 -0.02700000 0.54117647 0.42352941 0.64313725
v -0.03651095 0.00950732 -0.00000000 0.54117647 0.42352941 0.64313725
v -0.03438007 -0.01553683 -0.00000000 0.54117647 0.42352941 0.64313725
v -0.03438007 0.01553947 -0.02700000 0.54117647 0.42352941 0.64313725
v -0.03125379 -0.02112599 -0.02700000 0.54117647 0.42352941 0.64313725
v -0.03438007 0.01553947 -0.00000000 0.54117647 0.42352941 0.64313725
v -0.03125379 -0.02112599 -0.00000000 0.54117647 0.42352941 0.64313725
v -0.03125379 0.02112124 -0.02700000 0.54117647 0.42352941 0.64313725
v -0.02723535 -0.02610233 -0.02700000 0.54117647 0.42352941 0.64313725
v -0.03125379 0.02112124 -0.00000000 0.54117647 0.42352941 0.64313725
v -0.02723535 -0.02610233 -0.00000000 0.54117647 0.42352941 0.64313725
v -0.02723535 0.02610497 -0.02700000 0.54117647 0.42352941 0.64313725
v -0.02243533 -0.03033296 -0.02700000 0.54117647 0.42352941 0.64313725
v -0.02723535 0.02610497 -0.00000000 0.54117647 0.42352941 0.64313725
v -0.02243533 -0.03033296 -0.00000000 0.54117647 0.42352941 0.64313725
v -0.02243533 0.03032822 -0.02700000 0.54117647 0.42352941 0.64313725
v -0.01698647 -0.03368498 -0.02700000 0.54117647 0.42352941 0.64313725
v -0.02243533 0.03032822 -0.00000000 0.54117647 0.42352941 0.64313725
v -0.01698647 -0.03368498 -0.00000000 0.54117647 0.42352941 0.64313725
v -0.01698647 0.03368762 -0.02700000 0.54117647 0.42352941 0.64313725
v -0.01104359 -0.03606979 -0.02700000 0.54117647 0.42352941 0.64313725
v -0.00920027 -0.03773103 -0.01562226 0.54117647 0.42352941 0.64313725
v -0.00933299 -0.03773103 -0.01411580 0.54117647 0.42352941 0.64313725
v -0.01698647 0.03368762 -0.00000000 0.54117647 0.42352941 0.64313725
v -0.00933299 -0.03773103 -0.01387001 0.54117647 0.42352941 0.64313725
v -0.00920027 -0.03773103 -0.01237676 0.54117647 0.42352941 0.64313725
v -0.01104359 -0.03606979 -0.00000000 0.54117647 0.42352941 0.64313725
v -0.01104359 0.03607243 -0.02700000 0.54117647 0.42352941 0.64313725
v -0.00479104 -0.03742093 -0.02700000 0.54117647 0.42352941 0.64313725
v -0.00809427 -0.03773103 -0.01867218 0.54117647 0.42352941 0.64313725
v -0.00873575 -0.03773103 -0.01729258 0.54117647 0.42352941 0.64313725
v -0.00880948 -0.03773103 -0.01708643 0.54117647 0.42352941 0.64313725
v -0.01104359 0.03607243 -0.00000000 0.54117647 0.42352941 0.64313725
v -0.00880948 -0.03773103 -0.01090466 0.54117647 0.42352941 0.64313725
v -0.00873575 -0.03773103 -0.01069587 0.54117647 0.42352941 0.64313725
v -0.00809427 -0.03773103 -0.00932684 0.54117647 0.42352941 0.64313725
v -0.00479104 -0.03742093 -0.00000000 0.54117647 0.42352941 0.64313725
v -0.00479104 0.03742357 -0.02700000 0.54117647 0.42352941 0.64313725
v 0.00159423 -0.03769411 -0.02700000 0.54117647 0.42352941 0.64313725
v -0.00481316 -0.03773103 -0.02200754 0.54117647 0.42352941 0.64313725
v -0.00600763 -0.03773103 -0.02116181 0.54117647 0.42352941 0.64313725
v -0.00710625 -0.03773103 -0.02005707 0.54117647 0.42352941 0.64313725
v -0.00720211 -0.03773103 -0.01994342 0.54117647 0.42352941 0.64313725
v -0.00479104 0.03742357 -0.00000000 0.54117647 0.42352941 0.64313725
v -0.00720211 -0.03773103 -0.00804767 0.54117647 0.42352941 0.64313725
v -0.00710625 -0.03773103 -0.00793403 0.54117647 0.42352941 0.64313725
v -0.00600763 -0.03773103 -0.00683986 0.54117647 0.42352941 0.64313725
v 0.00159423 -0.03769411 -0.00000000 0.54117647 0.42352941 0.64313725
v 0.00159423 0.03769675 -0.02700000 0.54117647 0.42352941 0.64313725
v 0.00794264 -0.03688195 -0.02700000 0.54117647 0.42352941 0.64313725
v 0.00702098 -0.03773103 -0.02016543 0.54117647 0.42352941 0.64313725
v 0.00600346 -0.03773103 -0.02116181 0.54117647 0.42352941 0.64313725
v 0.00469839 -0.03773103 -0.02207625 0.54117647 0.42352941 0.64313725
v 0.00319424 -0.03773103 -0.02278455 0.54117647 0.42352941 0.64313725
v 0.00160161 -0.03773103 -0.02321006 0.54117647 0.42352941 0.64313725
v 0.00000160 -0.03773103 -0.02334750 0.54117647 0.42352941 0.64313725
v -0.00162790 -0.03773103 -0.02320478 0.54117647 0.42352941 0.64313725
v -0.00319103 -0.03773103 -0.02278455 0.54117647 0.42352941 0.64313725
v -0.00475417 -0.03773103 -0.02204190 0.54117647 0.42352941 0.64313725
v 0.00159423 0.03769675 -0.00000000 0.54117647 0.42352941 0.64313725
v -0.00481316 -0.03773103 -0.00599148 0.54117647 0.42352941 0.64313725
v 0.00710946 -0.03773103 -0.00794195 0.54117647 0.42352941 0.64313725
v 0.00795001 -0.03773103 -0.00909162 0.54117647 0.42352941 0.64313725
v 0.00794264 -0.03688195 -0.00000000 0.54117647 0.42352941 0.64313725
v -0.00319103 -0.03773103 -0.00521447 0.54117647 0.42352941 0.64313725
v -0.00162052 -0.03773103 -0.00479424 0.54117647 0.42352941 0.64313725
v 0.00000160 -0.03773103 -0.00465153 0.54117647 0.42352941 0.64313725
v 0.00159423 -0.03773103 -0.00478896 0.54117647 0.42352941 0.64313725
v 0.00319424 -0.03773103 -0.00521447 0.54117647 0.42352941 0.64313725
v 0.00463940 -0.03773103 -0.00588841 0.54117647 0.42352941 0.64313725
v 0.00469102 -0.03773103 -0.00592013 0.54117647 0.42352941 0.64313725
v 0.00600346 -0.03773103 -0.00683986 0.54117647 0.42352941 0.64313725
v 0.00701361 -0.03773103 -0.00783095 0.54117647 0.42352941 0.64313725
v 0.00794264 0.03687721 -0.02700000 0.54117647 0.42352941 0.64313725
v 0.00873896 -0.03773103 -0.01729522 0.54117647 0.42352941 0.64313725
v 0.00809011 -0.03773103 -0.01867218 0.54117647 0.42352941 0.64313725
v 0.00710946 -0.03773103 -0.02005443 0.54117647 0.42352941 0.64313725
v 0.01406248 -0.03500659 -0.02700000 0.54117647 0.42352941 0.64313725
v 0.00794264 0.03687721 -0.00000000 0.54117647 0.42352941 0.64313725
v 0.00809011 -0.03773103 -0.00932684 0.54117647 0.42352941 0.64313725
v 0.00873158 -0.03773103 -0.01069851 0.54117647 0.42352941 0.64313725
v 0.00880532 -0.03773103 -0.01090466 0.54117647 0.42352941 0.64313725
v 0.01406248 -0.03500659 -0.00000000 0.54117647 0.42352941 0.64313725
v 0.01406248 0.03500923 -0.02700000 0.54117647 0.42352941 0.64313725
v 0.00881269 -0.03773103 -0.01708908 0.54117647 0.42352941 0.64313725
v 0.01977678 -0.03212710 -0.02700000 0.54117647 0.42352941 0.64313725
v 0.00933619 -0.03773103 -0.01411844 0.54117647 0.42352941 0.64313725
v 0.00920347 -0.03773103 -0.01562226 0.54117647 0.42352941 0.64313725
v 0.01406248 0.03500923 -0.00000000 0.54117647 0.42352941 0.64313725
v 0.00920347 -0.03773103 -0.01237676 0.54117647 0.42352941 0.64313725
v 0.01977678 -0.03212710 -0.00000000 0.54117647 0.42352941 0.64313725
v 0.00933619 -0.03773103 -0.01387001 0.54117647 0.42352941 0.64313725
v 0.01977678 0.03212236 -0.02700000 0.54117647 0.42352941 0.64313725
v 0.02492334 -0.02831732 -0.02700000 0.54117647 0.42352941 0.64313725
v 0.01977678 0.03212236 -0.00000000 0.54117647 0.42352941 0.64313725
v 0.02492334 -0.02831732 -0.00000000 0.54117647 0.42352941 0.64313725
v 0.02492334 0.02831996 -0.02700000 0.54117647 0.42352941 0.64313725
v 0.02935469 -0.02370276 -0.02700000 0.54117647 0.42352941 0.64313725
v 0.02492334 0.02831996 -0.00000000 0.54117647 0.42352941 0.64313725
v 0.02935469 -0.02370276 -0.00000000 0.54117647 0.42352941 0.64313725
v 0.02935469 0.02369802 -0.02700000 0.54117647 0.42352941 0.64313725
v 0.03293811 -0.01839417 -0.02700000 0.54117647 0.42352941 0.64313725
v 0.02935469 0.02369802 -0.00000000 0.54117647 0.42352941 0.64313725
v 0.03293811 -0.01839417 -0.00000000 0.54117647 0.42352941 0.64313725
v 0.03293811 0.01839681 -0.02700000 0.54117647 0.42352941 0.64313725
v 0.03557038 -0.01256874 -0.02700000 0.54117647 0.42352941 0.64313725
v 0.03293811 0.01839681 -0.00000000 0.54117647 0.42352941 0.64313725
v 0.03557038 -0.01256874 -0.00000000 0.54117647 0.42352941 0.64313725
v 0.03557038 0.01256400 -0.02700000 0.54117647 0.42352941 0.64313725
v 0.03718513 -0.00637416 -0.02700000 0.54117647 0.42352941 0.64313725
v 0.03557038 0.01256400 -0.00000000 0.54117647 0.42352941 0.64313725
v 0.03718513 -0.00637416 -0.00000000 0.54117647 0.42352941 0.64313725
v 0.03718513 0.00636942 -0.02700000 0.54117647 0.42352941 0.64313725
v 0.03773075 -0.00000237 -0.02700000 0.54117647 0.42352941 0.64313725
v 0.03718513 0.00636942 -0.00000000 0.54117647 0.42352941 0.64313725
v 0.03773075 -0.00000237 -0.00000000 0.54117647 0.42352941 0.64313725


vn 0.12920133 0.99161251 0.00341244
vn 0.98448758 0.00927977 0.17520873
vn 0.24304117 -0.96901746 0.04400181
vn 0.99717635 0.00000000 -0.07509542
vn 0.96260246 0.01943902 0.27021958
vn 0.93024151 0.01211734 0.36674774
vn 0.86403386 -0.03290371 0.50235728
vn 0.98434293 -0.03212482 -0.17331182
vn 0.98468303 0.01222239 -0.17392514
vn 0.89803981 0.06064753 0.43571364
vn 0.80932506 0.11320704 0.57634809
vn 0.77756437 0.03304401 0.62793450
vn 0.63783412 -0.10811496 0.76254757
vn 0.85833899 -0.10636152 -0.50193765
vn 0.93010681 0.01471856 -0.36699412
vn 0.96281961 0.02407979 -0.26906979
vn 0.69591970 0.18029780 0.69511760
vn 0.61929086 0.22616130 0.75188423
vn 0.55078203 0.26212840 0.79241899
vn 0.47195726 0.11648316 0.87389245
vn 0.33286831 -0.21876814 0.91724543
vn 0.80456638 0.12522453 -0.58050992
vn 0.85748358 0.09540506 -0.50558856
vn 0.62438461 -0.22359546 -0.74843098
vn 0.74654871 0.05715349 -0.66287141
vn 0.31258544 0.39078277 0.86578241
vn 0.23238272 0.42947783 0.87266664
vn 0.14235763 0.18491455 0.97238928
vn -0.00053588 -0.34430454 0.93885787
vn 0.32187026 -0.34171725 -0.88296595
vn 0.49353017 0.16067475 -0.85475821
vn 0.61769672 0.23855521 -0.74936117
vn -0.00142979 0.54343829 0.83944790
vn -0.16257005 0.35115680 0.92209538
vn -0.30778785 -0.45305244 0.83666607
vn -0.00016890 -0.45973046 -0.88805849
vn 0.16761962 0.26077528 -0.95073651
vn 0.31445575 0.40173860 -0.86007191
vn -0.26415672 0.65923954 0.70400601
vn -0.45036614 0.43447481 0.78000126
vn -0.53808340 -0.55381994 0.63541303
vn -0.14090727 0.22834265 -0.96333005
vn -0.00047237 0.55335484 -0.83294549
vn -0.28827219 -0.54603837 -0.78660107
vn -0.44150837 0.73123373 0.51996884
vn -0.47627211 0.74362195 0.46924542
vn -0.72699346 0.37220416 0.57701350
vn -0.67962072 -0.61950375 0.39284957
vn -0.19951323 0.63911976 -0.74277884
vn -0.26011789 0.66544120 -0.69966184
vn -0.50993226 -0.61297119 -0.60351919
vn -0.45219454 0.31319216 -0.83512321
vn -0.54928929 0.77261911 0.31834099
vn -0.85552946 0.39269921 0.33742653
vn -0.75777621 -0.63866398 0.13372939
vn -0.43882363 0.73557620 -0.51610220
vn -0.40008518 0.71995080 -0.56710025
vn -0.65464227 -0.65458984 -0.37809475
vn -0.72642883 0.37390643 -0.57662391
vn -0.47332981 0.74729778 -0.46637423
vn -0.59284730 0.78796940 0.16624170
vn -0.60086075 0.79216905 0.10693249
vn -0.60681465 0.79351492 0.04593528
vn -0.73996101 -0.65923728 -0.13365593
vn -0.85423529 0.39593436 -0.33692441
vn -0.54716284 0.77496641 -0.31629084
vn -0.91072991 0.41230406 -0.02400809
vn -0.60005872 0.79290375 -0.10598670
vn -0.59153407 0.78911352 -0.16549108
vn -0.07682340 -0.00655686 -0.99702316
vn -0.03849762 -0.00328576 0.99925329
vn -0.99347799 0.11323302 -0.01340750
vn -0.96008524 -0.27938871 -0.01335229
vn -0.99830399 0.05664962 0.01341534
vn -0.97434499 -0.22466323 0.01335204
vn -0.95884721 0.27891639 -0.05308179
vn -0.89774374 -0.43730245 -0.05312947
vn -0.97309801 0.22419820 0.05306062
vn -0.92117035 -0.38551329 0.05314788
vn -0.89262615 0.43518334 -0.11761809
vn -0.80658417 -0.57934119 -0.11741281
vn -0.91601384 0.38351581 0.11761918
vn -0.83804780 -0.53282390 0.11736516
vn -0.79553493 0.57113334 -0.20231383
vn -0.68787240 -0.69713167 -0.20208662
vn -0.82631260 0.52560319 0.20235805
vn -0.72612131 -0.65719121 0.20210776
vn -0.66959127 0.67897686 -0.30106137
vn -0.54503664 -0.78245100 -0.30117353
vn -0.70721814 0.63974872 0.30093865
vn -0.58880379 -0.75007528 0.30115972
vn -0.52290520 0.75017295 -0.40473534
vn -0.42679168 -0.79622914 -0.42879834
vn -0.56438000 0.71941132 0.40487352
vn -0.45766002 -0.82553916 0.33020056
vn -0.36665752 0.78187392 -0.50421764
vn -0.12530705 -0.39632978 -0.90951682
vn -0.05615335 -0.99836703 -0.01049140
vn -0.42355525 -0.90530202 -0.03208118
vn -0.41065314 0.75965965 0.50426304
vn -0.46356419 -0.88606076 0.00214079
vn -0.36707569 -0.92796217 0.06435568
vn -0.13377363 -0.42728290 0.89416662
vn -0.21420187 0.77678828 -0.59221409
vn -0.03402738 -0.24578121 -0.96872789
vn -0.20394225 -0.97240280 -0.11331529
vn -0.23043690 -0.96752100 -0.10393238
vn -0.31367508 -0.94551478 -0.08723379
vn -0.25766821 0.76357606 0.59207997
vn -0.25968504 -0.96302309 0.07176490
vn -0.18236935 -0.97974881 0.08266620
vn -0.18857697 -0.97739209 0.09562125
vn -0.03764438 -0.27851767 0.95969308
vn -0.07409245 0.74280231 -0.66539841
vn 0.00885565 -0.23126443 -0.97285063
vn -0.03862057 -0.99768487 -0.05597638
vn -0.03453272 -0.99857861 -0.04059874
vn -0.04587824 -0.99793395 -0.04497792
vn -0.08319272 -0.99476445 -0.05935206
vn -0.11616442 0.73749570 0.66528634
vn -0.04639728 -0.99838071 0.03291292
vn -0.02806531 -0.99922068 0.02775557
vn -0.03412849 -0.99857158 0.04111023
vn 0.01136912 -0.30714825 0.95159377
vn 0.04924883 0.68802306 -0.72401576
vn 0.04611626 -0.20542013 -0.97758675
vn 0.08230979 -0.99422392 -0.06887592
vn 0.00149934 -0.99999722 -0.00182244
vn 0.00121084 -0.99999707 -0.00209615
vn 0.00088176 -0.99999671 -0.00240836
vn 0.00049017 -0.99999602 -0.00277988
vn -0.00000531 -0.99999472 -0.00324996
vn -0.00068711 -0.99999217 -0.00389680
vn -0.00186526 -0.99998569 -0.00501453
vn -0.00284907 -0.99997825 -0.00594789
vn 0.00985222 0.68952375 0.72419606
vn -0.00226822 -0.99998970 0.00393054
vn 0.00164833 -0.99999789 0.00122435
vn 0.08475682 -0.99449309 0.06164231
vn 0.05139330 -0.23118335 0.97155185
vn -0.00119618 -0.99999420 0.00318980
vn -0.00047452 -0.99999627 0.00269116
vn -0.00000389 -0.99999720 0.00236597
vn 0.00037145 -0.99999771 0.00210663
vn 0.00068290 -0.99999798 0.00189143
vn 0.00084041 -0.99999806 0.00178259
vn 0.00111233 -0.99999811 0.00159471
vn 0.00123962 -0.99999810 0.00150675
vn 0.00139467 -0.99999805 0.00139962
vn 0.15209612 0.62060726 -0.76922909
vn 0.20266687 -0.97631983 -0.07566857
vn 0.03555224 -0.99914724 -0.02099600
vn 0.03354636 -0.99914852 -0.02401837
vn 0.09774693 -0.23723857 -0.96652129
vn 0.11708518 0.62820483 0.76918772
vn 0.03429327 -0.99927261 0.01667979
vn 0.03502479 -0.99926033 0.01587639
vn 0.21451892 -0.97425649 0.06932476
vn 0.10413262 -0.25394710 0.96159621
vn 0.23761671 0.54566282 -0.80361084
vn 0.10252768 -0.99432272 -0.02846759
vn 0.38583493 -0.62044100 -0.68277695
vn 0.34116524 -0.93981945 -0.01859234
vn 0.10718218 -0.99405997 -0.01888814
vn 0.20594824 0.55830976 0.80366382
vn 0.10396212 -0.99440710 0.01861176
vn 0.32351117 -0.55010717 0.76988481
vn 0.43673982 -0.89957311 0.00515226
vn 0.30618664 0.46715709 -0.82946609
vn 0.38058086 -0.40890383 -0.82943105
vn 0.27945304 0.48369999 0.82942167
vn 0.35705869 -0.42974076 0.82935636
vn 0.36070436 0.38732889 -0.84845076
vn 0.42107578 -0.32062764 -0.84846515
vn 0.33806655 0.40712821 0.84850317
vn 0.40193151 -0.34410425 0.84855367
vn 0.40282312 0.30687786 -0.86229897
vn 0.44885582 -0.23417377 -0.86237527
vn 0.38482782 0.32929416 0.86224875
vn 0.43510490 -0.25930438 0.86223255
vn 0.43432407 0.22649381 -0.87181601
vn 0.46638915 -0.15009209 -0.87175313
vn 0.42071876 0.25084343 0.87182183
vn 0.45698900 -0.17616600 0.87185239
vn 0.45605989 0.14670852 -0.87777331
vn 0.47418752 -0.06775456 -0.87781292
vn 0.44701798 0.17217984 0.87779783
vn 0.46971382 -0.09451686 0.87774455
vn 0.46890609 0.06699992 -0.88070318
vn 0.33742243 0.00000000 -0.94135334
vn 0.46448302 0.09346430 0.88063610
vn 0.58263775 0.00000000 0.81273197
f 1//1 2//2 3//3
f 1//1 3//3 8//8
f 1//1 8//8 4//4
f 1//1 4//4 9//9
f 1//1 9//9 16//16
f 1//1 16//16 15//15
f 1//1 15//15 23//23
f 1//1 23//23 22//22
f 1//1 22//22 25//25
f 1//1 25//25 32//32
f 1//1 32//32 31//31
f 1//1 31//31 38//38
f 1//1 38//38 37//37
f 1//1 37//37 43//43
f 1//1 43//43 42//42
f 1//1 42//42 49//49
f 1//1 49//49 50//50
f 1//1 50//50 52//52
f 1//1 52//52 57//57
f 1//1 57//57 56//56
f 1//1 56//56 60//60
f 1//1 60//60 59//59
f 1//1 59//59 66//66
f 1//1 66//66 65//65
f 1//1 65//65 69//69
f 1//1 69//69 68//68
f 1//1 68//68 67//67
f 1//1 67//67 63//63
f 1//1 63//63 62//62
f 1//1 62//62 61//61
f 1//1 61//61 54//54
f 1//1 54//54 53//53
f 1//1 53//53 47//47
f 1//1 47//47 46//46
f 1//1 46//46 45//45
f 1//1 45//45 40//40
f 1//1 40//40 39//39
f 1//1 39//39 34//34
f 1//1 34//34 33//33
f 1//1 33//33 28//28
f 1//1 28//28 27//27
f 1//1 27//27 26//26
f 1//1 26//26 20//20
f 1//1 20//20 19//19
f 1//1 19//19 18//18
f 1//1 18//18 17//17
f 1//1 17//17 12//12
f 1//1 12//12 11//11
f 1//1 11//11 10//10
f 1//1 10//10 6//6
f 1//1 6//6 5//5
f 1//1 5//5 2//2
f 2//2 5//5 3//3
f 3//3 5//5 6//6
f 3//3 6//6 7//7
f 3//3 7//7 13//13
f 3//3 13//13 21//21
f 3//3 21//21 29//29
f 3//3 29//29 35//35
f 3//3 35//35 41//41
f 3//3 41//41 48//48
f 3//3 48//48 55//55
f 3//3 55//55 64//64
f 3//3 64//64 58//58
f 3//3 58//58 51//51
f 3//3 51//51 44//44
f 3//3 44//44 36//36
f 3//3 36//36 30//30
f 3//3 30//30 24//24
f 3//3 24//24 14//14
f 3//3 14//14 8//8
f 4//4 8//8 9//9
f 6//6 10//10 7//7
f 7//7 10//10 11//11
f 7//7 11//11 12//12
f 7//7 12//12 13//13
f 8//8 14//14 15//15
f 8//8 15//15 16//16
f 8//8 16//16 9//9
f 12//12 17//17 13//13
f 13//13 17//17 18//18
f 13//13 18//18 19//19
f 13//13 19//19 20//20
f 13//13 20//20 21//21
f 14//14 22//22 23//23
f 14//14 23//23 15//15
f 14//14 24//24 25//25
f 14//14 25//25 22//22
f 20//20 26//26 21//21
f 21//21 26//26 27//27
f 21//21 27//27 28//28
f 21//21 28//28 29//29
f 24//24 30//30 31//31
f 24//24 31//31 32//32
f 24//24 32//32 25//25
f 28//28 33//33 29//29
f 29//29 33//33 34//34
f 29//29 34//34 35//35
f 30//30 36//36 37//37
f 30//30 37//37 38//38
f 30//30 38//38 31//31
f 34//34 39//39 35//35
f 35//35 39//39 40//40
f 35//35 40//40 41//41
f 36//36 42//42 43//43
f 36//36 43//43 37//37
f 36//36 44//44 42//42
f 40//40 45//45 41//41
f 41//41 45//45 46//46
f 41//41 46//46 47//47
f 41//41 47//47 48//48
f 42//42 44//44 49//49
f 44//44 50//50 49//49
f 44//44 51//51 52//52
f 44//44 52//52 50//50
f 47//47 53//53 48//48
f 48//48 53//53 54//54
f 48//48 54//54 55//55
f 51//51 56//56 57//57
f 51//51 57//57 52//52
f 51//51 58//58 59//59
f 51//51 59//59 60//60
f 51//51 60//60 56//56
f 54//54 61//61 55//55
f 55//55 61//61 62//62
f 55//55 62//62 63//63
f 55//55 63//63 67//67
f 55//55 67//67 64//64
f 58//58 64//64 65//65
f 58//58 65//65 66//66
f 58//58 66//66 59//59
f 64//64 67//67 68//68
f 64//64 68//68 69//69
f 64//64 69//69 65//65
f 70//70 71//71 74//74
f 70//70 74//74 72//72
f 70//70 72//72 76//76
f 70//70 76//76 80//80
f 70//70 80//80 84//84
f 70//70 84//84 88//88
f 70//70 88//88 92//92
f 70//70 92//92 96//96
f 70//70 96//96 104//104
f 70//70 104//104 114//114
f 70//70 114//114 125//125
f 70//70 125//125 150//150
f 70//70 150//150 160//160
f 70//70 160//160 169//169
f 70//70 169//169 173//173
f 70//70 173//173 177//177
f 70//70 177//177 181//181
f 70//70 181//181 185//185
f 70//70 185//185 189//189
f 70//70 189//189 190//190
f 70//70 190//190 186//186
f 70//70 186//186 182//182
f 70//70 182//182 178//178
f 70//70 178//178 174//174
f 70//70 174//174 170//170
f 70//70 170//170 162//162
f 70//70 162//162 154//154
f 70//70 154//154 126//126
f 70//70 126//126 115//115
f 70//70 115//115 105//105
f 70//70 105//105 97//97
f 70//70 97//97 93//93
f 70//70 93//93 89//89
f 70//70 89//89 85//85
f 70//70 85//85 81//81
f 70//70 81//81 77//77
f 70//70 77//77 73//73
f 70//70 73//73 75//75
f 70//70 75//75 71//71
f 71//71 75//75 79//79
f 71//71 79//79 83//83
f 71//71 83//83 87//87
f 71//71 87//87 91//91
f 71//71 91//91 95//95
f 71//71 95//95 103//103
f 71//71 103//103 113//113
f 71//71 113//113 124//124
f 71//71 124//124 140//140
f 71//71 140//140 159//159
f 71//71 159//159 167//167
f 71//71 167//167 172//172
f 71//71 172//172 176//176
f 71//71 176//176 180//180
f 71//71 180//180 184//184
f 71//71 184//184 188//188
f 71//71 188//188 192//192
f 71//71 192//192 191//191
f 71//71 191//191 187//187
f 71//71 187//187 183//183
f 71//71 183//183 179//179
f 71//71 179//179 175//175
f 71//71 175//175 171//171
f 71//71 171//171 165//165
f 71//71 165//165 155//155
f 71//71 155//155 136//136
f 71//71 136//136 120//120
f 71//71 120//120 109//109
f 71//71 109//109 100//100
f 71//71 100//100 94//94
f 71//71 94//94 90//90
f 71//71 90//90 86//86
f 71//71 86//86 82//82
f 71//71 82//82 78//78
f 71//71 78//78 74//74
f 72//72 74//74 78//78
f 72//72 78//78 76//76
f 73//73 77//77 79//79
f 73//73 79//79 75//75
f 76//76 78//78 82//82
f 76//76 82//82 80//80
f 77//77 81//81 83//83
f 77//77 83//83 79//79
f 80//80 82//82 86//86
f 80//80 86//86 84//84
f 81//81 85//85 87//87
f 81//81 87//87 83//83
f 84//84 86//86 90//90
f 84//84 90//90 88//88
f 85//85 89//89 91//91
f 85//85 91//91 87//87
f 88//88 90//90 94//94
f 88//88 94//94 92//92
f 89//89 93//93 95//95
f 89//89 95//95 91//91
f 92//92 94//94 100//100
f 92//92 100//100 96//96
f 93//93 97//97 98//98
f 93//93 98//98 99//99
f 93//93 99//99 101//101
f 93//93 101//101 95//95
f 95//95 101//101 102//102
f 95//95 102//102 103//103
f 96//96 100//100 109//109
f 96//96 109//109 104//104
f 97//97 105//105 106//106
f 97//97 106//106 107//107
f 97//97 107//107 108//108
f 97//97 108//108 98//98
f 98//98 108//108 107//107
f 98//98 107//107 106//106
f 98//98 106//106 119//119
f 98//98 119//119 118//118
f 98//98 118//118 117//117
f 98//98 117//117 116//116
f 98//98 116//116 135//135
f 98//98 135//135 134//134
f 98//98 134//134 133//133
f 98//98 133//133 132//132
f 98//98 132//132 131//131
f 98//98 131//131 130//130
f 98//98 130//130 129//129
f 98//98 129//129 128//128
f 98//98 128//128 127//127
f 98//98 127//127 153//153
f 98//98 153//153 152//152
f 98//98 152//152 151//151
f 98//98 151//151 161//161
f 98//98 161//161 164//164
f 98//98 164//164 163//163
f 98//98 163//163 168//168
f 98//98 168//168 166//166
f 98//98 166//166 158//158
f 98//98 158//158 157//157
f 98//98 157//157 156//156
f 98//98 156//156 139//139
f 98//98 139//139 138//138
f 98//98 138//138 149//149
f 98//98 149//149 148//148
f 98//98 148//148 147//147
f 98//98 147//147 146//146
f 98//98 146//146 145//145
f 98//98 145//145 144//144
f 98//98 144//144 143//143
f 98//98 143//143 142//142
f 98//98 142//142 141//141
f 98//98 141//141 137//137
f 98//98 137//137 123//123
f 98//98 123//123 122//122
f 98//98 122//122 121//121
f 98//98 121//121 112//112
f 98//98 112//112 111//111
f 98//98 111//111 110//110
f 98//98 110//110 102//102
f 98//98 102//102 101//101
f 98//98 101//101 99//99
f 102//102 110//110 103//103
f 103//103 110//110 111//111
f 103//103 111//111 112//112
f 103//103 112//112 113//113
f 104//104 109//109 120//120
f 104//104 120//120 114//114
f 105//105 115//115 116//116
f 105//105 116//116 117//117
f 105//105 117//117 118//118
f 105//105 118//118 119//119
f 105//105 119//119 106//106
f 112//112 121//121 113//113
f 113//113 121//121 122//122
f 113//113 122//122 123//123
f 113//113 123//123 124//124
f 114//114 120//120 136//136
f 114//114 136//136 125//125
f 115//115 126//126 127//127
f 115//115 127//127 128//128
f 115//115 128//128 129//129
f 115//115 129//129 130//130
f 115//115 130//130 131//131
f 115//115 131//131 132//132
f 115//115 132//132 133//133
f 115//115 133//133 134//134
f 115//115 134//134 135//135
f 115//115 135//135 116//116
f 123//123 137//137 124//124
f 124//124 138//138 139//139
f 124//124 139//139 140//140
f 124//124 137//137 141//141
f 124//124 141//141 142//142
f 124//124 142//142 143//143
f 124//124 143//143 144//144
f 124//124 144//144 145//145
f 124//124 145//145 146//146
f 124//124 146//146 147//147
f 124//124 147//147 148//148
f 124//124 148//148 149//149
f 124//124 149//149 138//138
f 125//125 136//136 155//155
f 125//125 155//155 150//150
f 126//126 151//151 152//152
f 126//126 152//152 153//153
f 126//126 153//153 127//127
f 126//126 154//154 151//151
f 139//139 156//156 140//140
f 140//140 156//156 157//157
f 140//140 157//157 158//158
f 140//140 158//158 159//159
f 150//150 155//155 165//165
f 150//150 165//165 160//160
f 151//151 154//154 161//161
f 154//154 162//162 163//163
f 154//154 163//163 164//164
f 154//154 164//164 161//161
f 158//158 166//166 159//159
f 159//159 166//166 168//168
f 159//159 168//168 167//167
f 160//160 165//165 171//171
f 160//160 171//171 169//169
f 162//162 170//170 172//172
f 162//162 172//172 167//167
f 162//162 167//167 168//168
f 162//162 168//168 163//163
f 169//169 171//171 175//175
f 169//169 175//175 173//173
f 170//170 174//174 176//176
f 170//170 176//176 172//172
f 173//173 175//175 179//179
f 173//173 179//179 177//177
f 174//174 178//178 180//180
f 174//174 180//180 176//176
f 177//177 179//179 183//183
f 177//177 183//183 181//181
f 178//178 182//182 184//184
f 178//178 184//184 180//180
f 181//181 183//183 187//187
f 181//181 187//187 185//185
f 182//182 186//186 188//188
f 182//182 188//188 184//184
f 185//185 187//187 191//191
f 185//185 191//191 189//189
f 186//186 190//190 192//192
f 186//186 192//192 188//188
f 189//189 191//191 192//192
f 189//189 192//192 190//190
